<svg xmlns="http://www.w3.org/2000/svg" viewBox="0 0 200 200" width="200" height="200">
  <rect width="200" height="200" fill="white"/>
  <!-- Simplified QR code pattern for room 2 -->
  <g fill="#059669">
    <!-- Top-left finder pattern -->
    <rect x="20" y="20" width="40" height="40" rx="4"/>
    <rect x="24" y="24" width="32" height="32" fill="white"/>
    <rect x="28" y="28" width="24" height="24" rx="2"/>
    <!-- Top-right finder pattern -->
    <rect x="140" y="20" width="40" height="40" rx="4"/>
    <rect x="144" y="24" width="32" height="32" fill="white"/>
    <rect x="148" y="28" width="24" height="24" rx="2"/>
    <!-- Bottom-left finder pattern -->
    <rect x="20" y="140" width="40" height="40" rx="4"/>
    <rect x="24" y="144" width="32" height="32" fill="white"/>
    <rect x="28" y="148" width="24" height="24" rx="2"/>
    <!-- Data modules - different pattern for room 2 -->
    <rect x="68" y="20" width="8" height="8"/>
    <rect x="84" y="20" width="8" height="8"/>
    <rect x="100" y="20" width="8" height="8"/>
    <rect x="116" y="20" width="8" height="8"/>
    <rect x="80" y="36" width="8" height="8"/>
    <rect x="104" y="36" width="8" height="8"/>
    <rect x="120" y="36" width="8" height="8"/>
    <rect x="136" y="36" width="8" height="8"/>
    <rect x="68" y="52" width="8" height="8"/>
    <rect x="96" y="52" width="8" height="8"/>
    <rect x="128" y="52" width="8" height="8"/>
    <rect x="80" y="68" width="8" height="8"/>
    <rect x="112" y="68" width="8" height="8"/>
    <rect x="136" y="68" width="8" height="8"/>
    <rect x="96" y="80" width="8" height="8"/>
    <rect x="112" y="80" width="8" height="8"/>
    <rect x="136" y="80" width="8" height="8"/>
    <rect x="68" y="96" width="8" height="8"/>
    <rect x="80" y="96" width="8" height="8"/>
    <rect x="120" y="96" width="8" height="8"/>
    <rect x="136" y="96" width="8" height="8"/>
    <rect x="96" y="104" width="8" height="8"/>
    <rect x="112" y="104" width="8" height="8"/>
    <rect x="68" y="120" width="8" height="8"/>
    <rect x="84" y="120" width="8" height="8"/>
    <rect x="100" y="120" width="8" height="8"/>
    <rect x="116" y="120" width="8" height="8"/>
    <rect x="80" y="128" width="8" height="8"/>
    <rect x="104" y="128" width="8" height="8"/>
    <rect x="120" y="128" width="8" height="8"/>
    <rect x="136" y="128" width="8" height="8"/>
    <rect x="68" y="140" width="8" height="8"/>
    <rect x="84" y="140" width="8" height="8"/>
    <rect x="116" y="140" width="8" height="8"/>
    <rect x="140" y="80" width="8" height="8"/>
    <rect x="148" y="80" width="8" height="8"/>
    <rect x="156" y="80" width="8" height="8"/>
    <rect x="164" y="80" width="8" height="8"/>
    <rect x="140" y="96" width="8" height="8"/>
    <rect x="148" y="96" width="8" height="8"/>
    <rect x="156" y="96" width="8" height="8"/>
    <rect x="164" y="96" width="8" height="8"/>
    <rect x="140" y="140" width="8" height="8"/>
    <rect x="148" y="140" width="8" height="8"/>
    <rect x="156" y="140" width="8" height="8"/>
    <rect x="164" y="140" width="8" height="8"/>
    <rect x="172" y="80" width="8" height="8"/>
    <rect x="172" y="96" width="8" height="8"/>
    <rect x="172" y="140" width="8" height="8"/>
    <!-- Timing patterns -->
    <rect x="68" y="60" width="8" height="8"/>
    <rect x="84" y="60" width="8" height="8"/>
    <rect x="100" y="60" width="8" height="8"/>
    <rect x="116" y="60" width="8" height="8"/>
    <rect x="132" y="60" width="8" height="8"/>
    <rect x="60" y="68" width="8" height="8"/>
    <rect x="60" y="84" width="8" height="8"/>
    <rect x="60" y="100" width="8" height="8"/>
    <rect x="60" y="116" width="8" height="8"/>
    <rect x="60" y="132" width="8" height="8"/>
  </g>
</svg>
